<?xml version="1.0" standalone="no"?><!DOCTYPE svg PUBLIC "-//W3C//DTD SVG 1.1//EN" "http://www.w3.org/Graphics/SVG/1.1/DTD/svg11.dtd"><svg t="1557562050922" class="icon" style="" viewBox="0 0 1024 1024" version="1.1" xmlns="http://www.w3.org/2000/svg" p-id="4694" xmlns:xlink="http://www.w3.org/1999/xlink" width="32" height="32"><defs><style type="text/css"></style></defs><path d="M508.09 1024C305.85 1024 88.25 967.68125 88.25 865.28125c0-74.24125 92.16-135.68 279.04-153.60125 10.24-2.56 17.92 5.12125 20.48 15.36 0 10.24 25.6 38.40125 15.36 38.40125-179.2 17.92-248.32 56.32-248.32 99.84 0 58.88 128 102.4 355.84 102.4 225.28 0 355.83875-43.52 355.83875-102.4 0-43.52-69.12125-81.92-250.87875-99.84-10.24125 0 12.7975-30.72 15.35875-38.40125 0-10.23875 10.23875-17.92 20.48125-15.36 189.43875 17.92125 281.59875 79.36 281.59875 153.60125-5.11875 102.4-222.71875 158.71875-424.95875 158.71875m0 0z" fill="#4b4949" p-id="4695"></path><path d="M508.09 890.88l-17.92-17.92c-12.8-12.8-337.92-317.44-337.92-512C152.25 163.84 310.97 0 508.09 0s355.83875 163.84 355.83875 363.52c0 194.55875-325.12 499.19875-337.92 512l-17.91875 15.36m0-837.12c-166.4 0-302.08 138.24-302.08 307.2 0 133.12 204.8 358.4 302.08 453.12125 99.84-94.72 302.07875-320 302.07875-453.12125 0-168.96-135.67875-307.2-302.07875-307.2m0 442.88c-81.92 0-145.92-66.56-145.92-148.48s66.56-148.48 145.92-148.48c81.92 0 145.91875 66.56 145.91875 148.48s-63.99875 148.48-145.91875 148.48m0-243.2c-51.2 0-92.16 43.52-92.16 94.72s40.96 94.72 92.16 94.72 92.16-43.52 92.16-94.72c0-53.75875-40.96-94.72-92.16-94.72m0 0z" fill="#4b4949" p-id="4696"></path></svg>