<?xml version="1.0" standalone="no"?><!DOCTYPE svg PUBLIC "-//W3C//DTD SVG 1.1//EN" "http://www.w3.org/Graphics/SVG/1.1/DTD/svg11.dtd"><svg t="1558093555429" class="icon" style="" viewBox="0 0 1028 1024" version="1.1" xmlns="http://www.w3.org/2000/svg" p-id="3640" xmlns:xlink="http://www.w3.org/1999/xlink" width="32.125" height="32"><defs><style type="text/css"></style></defs><path d="M429.2 213.3l85.8-148.7 85.8 148.7z" fill="#38C9E5" p-id="3641"></path><path d="M0 959.4l85.7-148.7 85.9 148.7z" fill="#2ED7FF" p-id="3642"></path><path d="M856.8 959.4l85.8-148.7 85.8 148.7z" fill="#00EACA" p-id="3643"></path><path d="M571.7 627.2H456.3l7.2-15.8h101zM724.4 679h-115l7.2-15.9h100.5zM419.2 718.1H303.7l7.3-15.9h100.9zM743.8 887.6H294.3l14.5-37.5h420.5z" fill="#C7C9FD" p-id="3644"></path><path d="M292.9 887.5h450.4v71.9H292.9z" fill="#545EFB" p-id="3645"></path><path d="M346.2 532h30v402h-30zM499.2 532h30v402h-30zM652.2 532h30v402h-30z" fill="#545EFB" p-id="3646"></path><path d="M318.4 733.1h85.6v85.6h-85.6z" fill="#FFFFFF" p-id="3647"></path><path d="M389 748.1v55.6h-55.6v-55.6h55.6m30-30H303.4v115.6h115.6V718.1z" fill="#545EFB" p-id="3648"></path><path d="M471.5 642.4h85.6V728h-85.6z" fill="#FFFFFF" p-id="3649"></path><path d="M542.1 657.4V713h-55.6v-55.6h55.6m30-30H456.5V743h115.6V627.4z" fill="#545EFB" p-id="3650"></path><path d="M624.4 694h85.6v85.6h-85.6z" fill="#FFFFFF" p-id="3651"></path><path d="M695 709v55.6h-55.6V709h55.6m30-30H609.4v115.6h115.6V679zM285.2 465.3h457.7v89.1H285.2z" fill="#545EFB" p-id="3652"></path><path d="M314.3 415L285.2 465h458v-0.2L714.2 415z" fill="#C7C9FD" p-id="3653"></path></svg>