<?xml version="1.0" standalone="no"?><!DOCTYPE svg PUBLIC "-//W3C//DTD SVG 1.1//EN" "http://www.w3.org/Graphics/SVG/1.1/DTD/svg11.dtd"><svg t="1558182099656" class="icon" style="" viewBox="0 0 1024 1024" version="1.1" xmlns="http://www.w3.org/2000/svg" p-id="3561" data-spm-anchor-id="a313x.7781069.0.i5" xmlns:xlink="http://www.w3.org/1999/xlink" width="32" height="32"><defs><style type="text/css"></style></defs><path d="M5.13801 516.500492h1013.721933V710.797298h-87.465899c-3.543702-83.205884-72.098941-149.582508-156.213519-149.582508-84.066483 0-152.621721 66.376624-156.1644 149.582508H413.312547c-3.542679-83.205884-72.098941-149.582508-156.188959-149.582508S104.477307 627.591414 100.934628 710.797298H5.13801V516.500492zM5.13801 516.500492h1013.721933c-7.228621-31.310037-39.49647-100.583635-103.886861-110.469777H82.742327C35.298877 420.632242 6.143918 492.611456 5.13801 516.500492z" fill="#ebad41" p-id="3562" data-spm-anchor-id="a313x.7781069.0.i4" class=""></path><path d="M79.439101 412.97281h784.166159L680.151385 189.137307c-14.313978-24.319847-37.964584-38.299205-73.486541-39.0411H256.860599c-41.674062 0.33462-65.730919 18.957733-77.29221 52.350193L79.439101 412.97281z m375.954783-159.947555h150.45641l118.871103 153.508926H455.393884V253.025255z m-81.00271 0v153.508926h-182.782588l60.129352-153.508926h122.653236zM257.123588 561.21479c86.341288 0 156.333245 69.990934 156.333245 156.332222 0 86.364824-69.991957 156.356781-156.333245 156.356781S100.791366 803.912859 100.791366 717.547012c0-86.340265 69.991957-156.332222 156.332222-156.332222z m0 72.792741c-46.126458 0-83.540504 37.414046-83.540504 83.540504 0 46.151017 37.414046 83.540504 83.540504 83.540505s83.540504-37.389487 83.540504-83.540505c0-46.127481-37.414046-83.540504-83.540504-83.540504zM775.181549 561.21479c86.364824 0 156.356781 69.990934 156.356781 156.332222 0 86.364824-69.990934 156.356781-156.356781 156.356781-86.317752 0-156.308686-69.990934-156.308687-156.356781 0-86.340265 69.990934-156.332222 156.308687-156.332222z m0 72.792741c-46.102922 0-83.540504 37.414046-83.540505 83.540504 0 46.151017 37.437582 83.540504 83.540505 83.540505 46.151017 0 83.540504-37.389487 83.540504-83.540505 0-46.127481-37.39051-83.540504-83.540504-83.540504z" fill="#ebad41" p-id="3563" data-spm-anchor-id="a313x.7781069.0.i3" class="selected"></path></svg>