<?xml version="1.0" standalone="no"?><!DOCTYPE svg PUBLIC "-//W3C//DTD SVG 1.1//EN" "http://www.w3.org/Graphics/SVG/1.1/DTD/svg11.dtd"><svg t="1558184225648" class="icon" style="" viewBox="0 0 1024 1024" version="1.1" xmlns="http://www.w3.org/2000/svg" p-id="7625" xmlns:xlink="http://www.w3.org/1999/xlink" width="32" height="32"><defs><style type="text/css"></style></defs><path d="M506.545121 541.803147m-432.777817 0a432.777817 432.777817 0 1 0 865.555634 0 432.777817 432.777817 0 1 0-865.555634 0Z" fill="#E9EAEB" p-id="7626"></path><path d="M295.936217 162.634869h551.484654v658.703733H295.936217z" fill="#FFFFFF" p-id="7627"></path><path d="M862.737882 836.655613H341.88725V668.168489h30.634023v137.853101h459.582586V239.219925H372.521273v61.268045h-30.634023V208.585903h520.850632v628.06971z" fill="#2A5082" p-id="7628"></path><path d="M847.348621 821.338602L555.602907 928.55768h-14.594511V55.415791h14.594511l291.745714 107.219078v658.703733z" fill="#FFFFFF" p-id="7629"></path><path d="M558.348409 943.874691h-32.657024V40.098779h32.657024L862.737882 151.725111v680.089748zM556.325407 72.250053v839.690115l275.706202-101.150074V173.400127zM188.717138 806.02159h168.487124v30.634023H188.717138zM862.737882 806.02159h61.268045v30.634023h-61.268045zM954.639949 806.02159h45.951034v30.634023h-45.951034z" fill="#2A5082" p-id="7630"></path><path d="M464.42334 499.681366L265.302194 300.48797v107.291329H35.547026v183.804134h229.755168v107.219079l199.121146-199.121146z" fill="#A3D4FF" p-id="7631"></path><path d="M249.985183 735.794539V606.900445H20.157765V392.390037H249.985183V263.495943l236.113173 236.185423zM50.575037 576.266422h229.755168V661.810485l162.418119-162.129119-162.129118-162.201369v85.544063H50.575037zM616.003951 567.740916l-27.38277-13.65526 13.65526-27.45502V457.342835l-13.65526-27.45502 27.38277-13.65526 16.906513 33.813025V533.927891l-16.906513 33.813025zM127.449093 806.02159h30.634023v30.634023h-30.634023zM311.253228 269.853948h-30.634022V147.317858h260.38919v30.634022h-229.755168v91.902068zM280.619206 729.436534h30.634022v91.902068h-30.634022z" fill="#2A5082" p-id="7632"></path></svg>