<?xml version="1.0" standalone="no"?><!DOCTYPE svg PUBLIC "-//W3C//DTD SVG 1.1//EN" "http://www.w3.org/Graphics/SVG/1.1/DTD/svg11.dtd"><svg t="1557561836933" class="icon" style="" viewBox="0 0 1024 1024" version="1.1" xmlns="http://www.w3.org/2000/svg" p-id="2154" xmlns:xlink="http://www.w3.org/1999/xlink" width="32" height="32"><defs><style type="text/css"></style></defs><path d="M926.6 422.9C895 277.9 802 166.5 657.9 100.8c-8.4-3.8-17.5-4.1-25.6-0.7-16 6.6-22.5 24.2-28.3 39.6-1.7 4.5-4.4 11.8-6.2 14.8-18.2 12-26.4 37.1-19.1 59.9 4.4 13.7 13.9 23.9 26.2 29.4-0.3 10.7 1.2 24.2 5.9 41.4 5 18.2 13.6 40.4 34.8 50.9 24.5 12.1 55.6 2.7 82.9-8.1 5.4-1.9 9.3-2.7 11.8-2.9v0.6c-1.9 14.3-6.7 23.2-12.3 33.5-15.1 28.2-24.2 52.8-2.9 113.5 11.9 34.2 33.2 55.7 52 74.7 13.7 13.8 25.5 25.7 32.2 40.7 11.9 29 48.4 48.5 80.5 65.7l6.1 3.3c3.3 1.8 6.9 2.7 10.6 2.7 3.2 0 6.5-0.7 9.5-2.1 6.4-3 11-8.9 12.4-15.8l0.1-0.7c5.5-25.2 20.7-114.7-1.9-218.3z m-36.5 179.9c-17.7-10.2-35.4-21.9-39.4-31.9-0.1-0.3-0.2-0.5-0.3-0.8-10-22.5-26-38.7-41.4-54.2-17-17.1-33-33.3-41.6-58v-0.1c-16.5-46.8-9.9-59.1 0.1-77.7 6.4-11.9 14.3-26.6 17.3-49.3 0-0.3 0.1-0.6 0.1-0.9 2.1-22.6-7.2-34.8-15.3-41-5.8-4.5-14.6-8.6-27.4-8.6-8 0-17.6 1.6-28.9 5.7-0.2 0.1-0.4 0.2-0.7 0.3-32.1 12.8-43.2 11.6-47 9.7-2.8-1.4-7.1-6.5-11.7-22.9-6.3-22.7-4.1-32.3-3.5-34.4 4.8-6.6 5.7-15.3 2-22.8-4.1-8.5-13.2-13.5-22.6-12.4-7.1 0.8-8-1.3-8.4-2.2-1.6-3.5-0.3-8.7 0.9-9.7l1.5-0.9c11.6-7.7 16.9-21.9 21.9-35.5 1-2.6 2.3-6.1 3.6-9.3C906.8 269.4 902.8 509 890.1 602.8zM610.8 597.1c-12.2-10.5-20.8-19.3-28.4-27.1-24.7-25.4-40-38.7-93.1-38.7-33.9 0-71.6 3.6-93.9 30.3-18 21.6-22.5 52.8-14.1 98.3 10 54.4 32.3 70.2 47.1 80.6 10 7.1 12.1 8.6 10.8 27.7-4.3 59.6 7.3 83.7 20.7 105.1 1.1 1.8 2.2 3.5 3.2 5.2 9.4 16.4 28.1 42.6 52.4 42.6 1.9 0 3.9-0.2 5.8-0.5 28.2-4.9 34.4-40 36.5-51.5 11.5-64.4 32.6-98.2 53.7-125 18.8-24 68.7-87.5-0.7-147z m-34.3 119.4C553 746.4 527.2 787 514 861.2c-0.7 4-1.5 7.2-2.2 9.7-3.1-3.6-6.7-8.6-10.1-14.5-1.2-2.2-2.6-4.4-4-6.7-8.3-13.3-17.6-28.3-14-78.4 2.9-40.8-11.6-54.6-29.4-67.2-11.5-8.1-22.3-15.8-29-52.4-5.6-30.6-4.1-51.4 4.5-61.7 8.2-9.9 26.6-14.3 59.6-14.3 36.7 0 41.4 4.8 61.1 25.2 7.8 8.1 17.6 18.1 31.3 29.9 28 24.1 26.7 44.9-5.3 85.7zM306.5 485.2c0.4-0.5 1.6-1.5 3.8-2.7l0.9-0.5c11.1-5.9 27.5-14.7 34.5-15.6 0.6 1.1 1.4 3.1 2.2 6.5 5.9 23.4 23.5 38.5 46 39.4 26.8 1 54.3-19 63.5-46.6 5.1-15.3 9-16.2 27.5-20.2 9.9-2.2 22.2-4.9 36-10.9 34.1-14.9 69.9-34.8 62-81.9l-0.5-3.2c-4.5-27.4-11.2-68.8-83.8-68.8-31.5 0-48.4 13.7-58.6 21.9-1.2 0.9-2.6 2.1-3.8 3-2.2-1.4-6.6-4.5-13.8-11.7-2.2-2.2-4-4.1-5.5-5.8 2.2-0.5 4.5-1 6.3-1.4 9.3-2 18.9-4.1 27.4-8.3 23.8-11.9 47.7-51.4 41.7-80.6-3.9-19.2-19-31.4-40.3-32.6-24.3-1.4-36.7 4.6-44.9 8.5-5.2 2.5-5.6 2.7-14-0.3-34.1-12.2-56.2 20.3-69.5 39.8-1.9 2.7-4.2 6.1-6.4 9.1-1.5-1.8-3-3.7-4.3-5.3-15.7-19.6-39.5-49.2-74.3-48.2-7.9 0.2-26.5 0.8-71.4 62.3-24.3 33.2-47.3 72.5-60 102.5-1.4 3.4-2 7-1.7 10.6 6.6 74.7 41.9 118.1 52.7 129.7 8.6 15.6 43.3 64.6 162.3 121 2.4 1.1 4.9 1.8 7.5 2.1 1.1 0.1 2.2 0.1 3.3 0.1 10.2 0 22.8-4.2 28.5-16.5 9.8-21-10.2-41-18.7-49.5-31-31.3-34.7-42.4-34.6-45.9z m-17.1-42c-19.5 10.4-25.4 24.8-26.9 35.1-2 13.4 2.4 26.8 10.1 39.8-58.7-36.8-73.9-63.4-75.5-66.3-1.1-3.1-2.7-5-5.1-7.4-1.4-1.4-34.1-33.9-41.5-99 24.4-54.6 74.6-121.9 91.8-132.3 12.2 1.7 26.4 19.4 36 31.4 9.4 11.7 16.9 21.1 27.3 25.1 25.9 10.8 43.3-14.7 54.9-31.6 4.8-7.1 13.6-20 18.5-22.6 23.6 8.2 36 3.8 47.7-1.9 5.5-2.7 9.9-4.8 22.2-4.2-1 8.5-10.4 25.2-18 29-3.4 1.7-10.6 3.2-16.9 4.6-16.7 3.6-39.6 8.6-45.8 29.6-6 20.3 9.1 38.8 22.9 52.6 34.1 34.1 54.8 29.9 77 11.9 8.3-6.7 14.8-12 30.6-12 34.7 0 35.8 6.7 39.8 31.5l0.6 3.4c1.6 9.4 2.8 16.9-35.9 33.8-9.8 4.3-18.9 6.3-27.7 8.2-21 4.6-47.1 10.3-60.2 49.6-3.5 10.6-13.5 16.2-19.3 16.2h-0.3c-1.4-0.1-3.1-0.1-4.5-5.7-4.6-18.5-13.6-30.9-26.8-36.7-22.7-10.1-46.5 2.6-74.1 17.4l-0.9 0.5z" fill="#4b4949" p-id="2155"></path><path d="M512 0C229.7 0 0 229.7 0 512s229.7 512 512 512 512-229.7 512-512S794.3 0 512 0z m0 979.5C254.2 979.5 44.5 769.8 44.5 512S254.2 44.5 512 44.5 979.5 254.2 979.5 512 769.8 979.5 512 979.5z" fill="#4b4949" p-id="2156"></path></svg>