<?xml version="1.0" standalone="no"?><!DOCTYPE svg PUBLIC "-//W3C//DTD SVG 1.1//EN" "http://www.w3.org/Graphics/SVG/1.1/DTD/svg11.dtd"><svg t="1558093622043" class="icon" style="" viewBox="0 0 1024 1024" version="1.1" xmlns="http://www.w3.org/2000/svg" p-id="5111" xmlns:xlink="http://www.w3.org/1999/xlink" width="32" height="32"><defs><style type="text/css"></style></defs><path d="M236.1 960.3l-25-146.7-146.7-25 265-265 171.7 171.6z" fill="#FCCA4C" p-id="5112"></path><path d="M209.7 805.8L70.8 782.1l-6.4 6.5 146.7 25zM492 686.1L233.4 944.7l2.6 15.6 265.1-265.1z" fill="#FDDA82" p-id="5113"></path><path d="M788 960.3l25-146.7 146.6-25-265-265-171.7 171.6z" fill="#FCCA4C" p-id="5114"></path><path d="M324 530.1L198.4 655.7l13.6 34.5c9.6 24.2 28.3 43.5 52.2 53.9l132 57.2 99.4-99.4L324 530.1zM698.4 527.5L824 653.1l-13.6 34.5c-9.6 24.2-28.3 43.5-52.2 53.9l-132 57.2-99.4-99.4 171.6-171.8z" fill="#F99403" p-id="5115"></path><path d="M668.3 678l-138.9 23.7-6.5-6.5 146.7-25zM944.1 791.3L691.9 539.1l2.7-15.5 265 265z" fill="#FDDA82" p-id="5116"></path><path d="M877.2 408L799 210.2c-9.6-24.2-28.3-43.5-52.2-53.9L551.7 71.8c-23.8-10.3-50.8-10.8-75-1.2l-197.8 78.2c-24.2 9.6-43.5 28.3-53.9 52.2l-84.5 195.1c-10.3 23.8-10.8 50.8-1.2 75l78.2 197.8c9.6 24.2 28.3 43.5 52.2 53.9l195.1 84.5c23.8 10.3 50.8 10.8 75 1.2l197.8-78.2c24.2-9.6 43.5-28.3 53.9-52.2L876 482.9c10.3-23.8 10.7-50.8 1.2-74.9z" fill="#5EADEF" p-id="5117"></path><path d="M508.2 439.5m-289.6 0a289.6 289.6 0 1 0 579.2 0 289.6 289.6 0 1 0-579.2 0Z" fill="#E7F5FD" p-id="5118"></path><path d="M508.1 150c2 0 3.9 0 5.9 0.1-157.2 3.2-283.6 131.5-283.6 289.5S356.8 725.9 514 729c-2 0-3.9 0.1-5.9 0.1-159.9 0-289.6-129.6-289.6-289.6S348.1 150 508.1 150z" fill="#BCDBF5" p-id="5119"></path><path d="M508.3 150c-2 0-3.9 0-5.9 0.1C659.5 153.2 786 281.6 786 439.5S659.5 725.9 502.3 729c2 0 3.9 0.1 5.9 0.1 159.9 0 289.6-129.6 289.6-289.6S668.2 150 508.3 150z" fill="#FAFDFF" p-id="5120"></path><path d="M508.2 439.5m-255.8 0a255.8 255.8 0 1 0 511.6 0 255.8 255.8 0 1 0-511.6 0Z" fill="#5EADEF" p-id="5121"></path><path d="M609.4 583.5l-98.9-49.9-97.1 53.2v-13.3l16.8-96.1-80.5-75.9v-13.3l109.2-4.5 47.3-100.1 50.7 98.4 109.8 0.7v13.4l-77.9 78.6 20.6 95.4z" fill="#3173E7" p-id="5122"></path><path d="M609.4 570.1l-98.9-49.8-97.1 53.2 16.8-109.4-80.5-75.9 109.2-17.8 47.3-100.1 50.7 98.4 109.8 14-77.9 78.6z" fill="#FFF9F0" p-id="5123"></path><path d="M506.2 270.3l34.4 106.5 91.7 13.8-53 69 30.1 110.5-20.6-108.8 77.9-78.6-109.8-14z" fill="#E7F5FD" p-id="5124"></path><path d="M758.7 189.1s42 61.2 65.4 111.7c23.5 50.5 37.5 115.8 41 129 3.5 13.2 21.3 2.6 14-16.3-7.3-18.9-75.1-190.3-75.1-190.3s-7.9-32.3-34.7-48.9c-15.5-9.8-10.6 14.8-10.6 14.8zM524.8 88.2S581.5 103 626 119.1c44.6 16.1 93.2 46.4 103.4 52.2 10.2 5.8 13.5-11-2.4-17.9-15.9-6.9-160.6-68.5-160.6-68.5s-15.9-15.7-41.2-9.8c-14.6 3.3-0.4 13.1-0.4 13.1zM846.6 489.2s-16 52.4-34.5 97.2c-18.5 44.9-52.7 90.2-59.2 99.9-6.5 9.7 11.6 18.1 19.5 2.4S850.6 530 850.6 530s11.7-24.7 10.5-52.8c-0.8-17.6-14.5 12-14.5 12z" fill="#9ECEF5" p-id="5125"></path><path d="M813 813.6l-8.6 2.1-25.2 135.8 8.8 8.8z" fill="#FFFFFF" p-id="5126"></path></svg>