<?xml version="1.0" standalone="no"?><!DOCTYPE svg PUBLIC "-//W3C//DTD SVG 1.1//EN" "http://www.w3.org/Graphics/SVG/1.1/DTD/svg11.dtd"><svg t="1558093090547" class="icon" style="" viewBox="0 0 1024 1024" version="1.1" xmlns="http://www.w3.org/2000/svg" p-id="1522" data-spm-anchor-id="a313x.7781069.0.i1" xmlns:xlink="http://www.w3.org/1999/xlink" width="32" height="32"><defs><style type="text/css"></style></defs><path d="M527.424 291.904h-47.552v94.144h47.552V291.904zM181.696 502.752l80 51.616 25.76-37.408-80-51.584-25.76 37.376z m-52.768 189.312h96.256v-43.36H128.928v43.36z m392.672 1.248l247.84-295.136-298.944 242.624 51.104 52.512z m191.36-338.4l-37.76-28.576-54.4 74.4 37.76 28.576 54.4-74.4zM512 166.816C231.52 166.816 4.16 389.376 4.16 663.936c0 65.344 37.056 208.224 37.056 208.224h919.872v-0.64h12.096a483.264 483.264 0 0 0 46.688-207.584C1019.84 389.376 792.512 166.816 512 166.816z m417.792 639.2H88.736c-13.28-40.384-21.472-97.76-21.472-142.624C67.264 429.024 272.576 226.432 512 226.432c239.392 0 447.264 203.712 447.264 438.08 0 44.864-16.16 101.152-29.472 141.504z m-188.16-297.536l25.632 39.904 78.304-49.312-25.728-39.936-78.208 49.344z m64.256 183.2h93.888v-44.16h-93.888v44.16zM296 359.136l58.784 74.528 36.192-28.16-58.752-74.528-36.224 28.16z m229.728 368.672l-94.08-84.992 94.4-70.016a91.52 91.52 0 0 0-19.136-2.016c-51.168 0-92.64 40.576-92.64 90.624s41.472 90.72 92.64 90.72c51.136 0 92.64-40.672 92.64-90.72 0-8.896-1.76-17.312-4.192-25.44l-69.632 91.84z" p-id="1523" fill="#ebad41" data-spm-anchor-id="a313x.7781069.0.i0" class="selected"></path><path d="M314.24 781.216h-19.872l-18.656-27.744H275.52v27.744h-16.416v-83.04h16.416v52.864h0.192l17.472-25.92h19.52l-20.8 26.432 22.336 29.664zM409.056 781.216h-16.352v-32c0-8.608-3.136-12.896-9.344-12.896a8.704 8.704 0 0 0-7.264 3.936 15.616 15.616 0 0 0-2.912 9.504v31.456h-16.32V748.8c0-8.32-3.072-12.512-9.28-12.512a8.736 8.736 0 0 0-7.36 3.744 16.064 16.064 0 0 0-2.752 9.856v31.328h-16.416v-56.064h16.416v8.736h0.192a20.608 20.608 0 0 1 7.808-7.488 20.928 20.928 0 0 1 10.24-2.688c7.904 0 13.28 3.552 16.192 10.656a20.8 20.8 0 0 1 18.88-10.656c12.192 0 18.304 7.584 18.304 22.656v34.848z" p-id="1524" fill="#ebad41"></path></svg>