<?xml version="1.0" standalone="no"?><!DOCTYPE svg PUBLIC "-//W3C//DTD SVG 1.1//EN" "http://www.w3.org/Graphics/SVG/1.1/DTD/svg11.dtd"><svg t="1558094643432" class="icon" style="" viewBox="0 0 1024 1024" version="1.1" xmlns="http://www.w3.org/2000/svg" p-id="6004" xmlns:xlink="http://www.w3.org/1999/xlink" width="32" height="32"><defs><style type="text/css"></style></defs><path d="M518.92 928H190a80.16 80.16 0 0 1-80-80.1V114.51A18.48 18.48 0 0 1 128.45 96h531.42a80.16 80.16 0 0 1 80.07 80.07v252a18.48 18.48 0 1 1-37 0v-252A43.17 43.17 0 0 0 659.87 133H146.93v714.9A43.17 43.17 0 0 0 190 891h328.92a18.48 18.48 0 1 1 0 37z" fill="#0897EA" p-id="6005"></path><path d="M685.79 927C560 927 457.57 824.59 457.57 698.75S560 470.52 685.79 470.52a230.47 230.47 0 0 1 38.78 3.28 18.48 18.48 0 0 1-6.23 36.42 193.23 193.23 0 0 0-32.55-2.75c-105.46 0-191.27 85.81-191.27 191.28S580.33 890 685.79 890a191.29 191.29 0 0 0 32.53-2.77 18.48 18.48 0 0 1 6.28 36.42 229.09 229.09 0 0 1-38.81 3.35z" fill="#0897EA" p-id="6006"></path><path d="M685.79 927C560 927 457.57 824.59 457.57 698.75S560 470.52 685.79 470.52a230.47 230.47 0 0 1 38.78 3.28A228.23 228.23 0 0 1 685.79 927z m0-419.5c-105.46 0-191.27 85.81-191.27 191.28S580.33 890 685.79 890a191.29 191.29 0 0 0 32.55-379.79 193.23 193.23 0 0 0-32.55-2.74z" fill="#0897EA" p-id="6007"></path><path d="M721.47 742.19A18.48 18.48 0 0 1 714 706.8l73.64-32.43a18.48 18.48 0 1 1 14.89 33.83l-73.64 32.43a18.5 18.5 0 0 1-7.42 1.56z" fill="#FF4056" p-id="6008"></path><path d="M684.27 758.57a18.47 18.47 0 0 1-18.48-18.48V596.33a18.48 18.48 0 0 1 37 0v115.44l11.27-5a18.48 18.48 0 0 1 14.89 33.83L691.71 757a18.51 18.51 0 0 1-7.44 1.57zM635.17 360H211.91a18.48 18.48 0 1 1 0-37h423.26a18.48 18.48 0 0 1 0 37zM436.79 467.15H213.86a18.48 18.48 0 0 1 0-37h222.93a18.48 18.48 0 0 1 0 37z" fill="#FF4056" p-id="6009"></path></svg>