<?xml version="1.0" standalone="no"?><!DOCTYPE svg PUBLIC "-//W3C//DTD SVG 1.1//EN" "http://www.w3.org/Graphics/SVG/1.1/DTD/svg11.dtd"><svg t="1558095126436" class="icon" style="" viewBox="0 0 1024 1024" version="1.1" xmlns="http://www.w3.org/2000/svg" p-id="10971" xmlns:xlink="http://www.w3.org/1999/xlink" width="32" height="32"><defs><style type="text/css"></style></defs><path d="M663.864 147.333H362.136c-34.421 0-67.432 13.998-91.773 38.916l-207.86 212.78c-19.338 19.798-19.338 51.893 0 71.691l404.102 413.673c25.623 26.229 67.165 26.229 92.788 0L963.495 470.72c19.338-19.798 19.338-51.893 0-71.691l-207.862-212.78c-24.337-24.918-57.348-38.916-91.769-38.916z" fill="#FFA820" p-id="10972"></path><path d="M62.504 399.028c-19.338 19.798-19.338 51.893 0 71.691l8.667 8.873c2.085-38.628 9.355-75.876 21.127-111.063l-29.794 30.499zM963.496 399.028L861.313 294.427c34.885 61.489 54.811 132.578 54.811 208.323 0 5.627-0.113 11.228-0.33 16.802l47.704-48.833c19.337-19.798 19.337-51.893-0.002-71.691z" fill="#FEAC33" p-id="10973"></path><path d="M160.006 299.218l-67.708 69.311c-11.772 35.187-19.041 72.435-21.127 111.063l41.377 42.357a368.9 368.9 0 0 1-2.075-39.073c0-66.966 18.046-129.715 49.533-183.658zM861.313 294.427L755.635 186.248c-24.339-24.917-57.35-38.916-91.771-38.916h-45.019C749 203.074 840.189 332.323 840.189 482.875c0 51.345-10.611 100.209-29.752 144.528l105.356-107.851c0.218-5.574 0.33-11.175 0.33-16.802 0-75.746-19.925-146.835-54.81-208.323zM427.792 844.659l38.814 39.733c25.623 26.229 67.165 26.229 92.788 0l68.278-69.895c-46.362 21.333-97.961 33.236-152.341 33.236a368.23 368.23 0 0 1-47.539-3.074z" fill="#FEB133" p-id="10974"></path><path d="M618.845 147.333H362.136c-34.421 0-67.432 13.998-91.773 38.916l-110.358 112.97c-31.487 53.943-49.533 116.692-49.533 183.657 0 13.2 0.708 26.235 2.075 39.073l64.293 65.816c-16.982-38.122-26.436-80.336-26.436-124.763 0-169.51 137.415-306.925 306.925-306.925s306.925 137.415 306.925 306.925S626.839 769.926 457.33 769.926c-46.985 0-91.495-10.573-131.306-29.445L427.792 844.66a368.23 368.23 0 0 0 47.539 3.074c54.38 0 105.979-11.903 152.341-33.236l182.765-187.094c19.14-44.319 29.752-93.184 29.752-144.528 0-150.553-91.189-279.802-221.344-335.543z" fill="#FEB633" p-id="10975"></path><path d="M764.254 463.001c0-169.51-137.415-306.925-306.925-306.925S150.405 293.491 150.405 463.001c0 44.427 9.453 86.642 26.436 124.763L326.024 740.48c39.81 18.872 84.321 29.445 131.306 29.445 169.509 0.001 306.924-137.414 306.924-306.924z m-573.917-19.875c0-137.514 111.477-248.991 248.991-248.991S688.32 305.612 688.32 443.126 576.842 692.118 439.328 692.118 190.337 580.641 190.337 443.126z" fill="#FFBC34" p-id="10976"></path><path d="M688.32 443.126c0-137.514-111.477-248.991-248.991-248.991S190.337 305.612 190.337 443.126s111.477 248.991 248.991 248.991S688.32 580.641 688.32 443.126zM421.327 614.31c-105.518 0-191.058-85.54-191.058-191.058s85.54-191.058 191.058-191.058 191.058 85.54 191.058 191.058S526.846 614.31 421.327 614.31z" fill="#FFC134" p-id="10977"></path><path d="M421.327 232.194c-105.518 0-191.058 85.54-191.058 191.058s85.54 191.058 191.058 191.058 191.058-85.54 191.058-191.058-85.539-191.058-191.058-191.058z m-18.001 304.308c-73.523 0-133.125-59.602-133.125-133.125s59.602-133.125 133.125-133.125 133.125 59.602 133.125 133.125-59.602 133.125-133.125 133.125z" fill="#FFC634" p-id="10978"></path><path d="M403.326 403.378m-133.125 0a133.125 133.125 0 1 0 266.25 0 133.125 133.125 0 1 0-266.25 0Z" fill="#FFCB34" p-id="10979"></path><path d="M663.864 165.333c14.702 0 29.048 2.922 42.639 8.686 13.62 5.775 25.818 14.122 36.256 24.808L950.62 411.606c12.532 12.83 12.532 33.706 0.001 46.535L546.518 871.814c-8.977 9.189-20.881 14.25-33.518 14.25-12.638 0-24.542-5.061-33.518-14.25L75.38 458.141c-12.532-12.83-12.532-33.706-0.001-46.535l207.86-212.78c10.439-10.686 22.637-19.033 36.257-24.808 13.591-5.763 27.937-8.686 42.639-8.686h301.729m0-17.999H362.136c-34.421 0-67.432 13.998-91.772 38.915l-207.86 212.78c-19.338 19.798-19.338 51.893 0 71.691l404.102 413.673c12.811 13.115 29.603 19.672 46.394 19.672s33.583-6.557 46.394-19.672l404.102-413.673c19.338-19.798 19.338-51.893 0-71.691l-207.862-212.78c-24.338-24.917-57.349-38.915-91.77-38.915z" fill="#FFA820" p-id="10980"></path><path d="M585.506 299.37H440.494c-16.543 0-32.407 6.686-44.106 18.584L296.49 419.583c-9.294 9.454-9.294 24.783 0 34.237l194.213 197.576a31.154 31.154 0 0 0 44.593 0L729.509 453.82c9.294-9.454 9.294-24.783 0-34.237l-99.896-101.629c-11.698-11.898-27.564-18.584-44.107-18.584z" fill="#FFE3B4" p-id="10981"></path><path d="M222.012 346.805a17.94 17.94 0 0 1-12.677-5.222c-7.057-7.001-7.102-18.398-0.101-25.456l87.419-88.112c7.002-7.057 18.398-7.102 25.456-0.1 7.057 7.001 7.102 18.398 0.101 25.456l-87.419 88.112a17.945 17.945 0 0 1-12.779 5.322zM172.371 396.84a17.94 17.94 0 0 1-12.677-5.222c-7.058-7.001-7.103-18.398-0.101-25.456l7.428-7.487c7.002-7.058 18.399-7.103 25.456-0.101 7.058 7.001 7.103 18.398 0.101 25.456l-7.428 7.487a17.946 17.946 0 0 1-12.779 5.323z" fill="#FFFFFF" p-id="10982"></path></svg>