<?xml version="1.0" standalone="no"?><!DOCTYPE svg PUBLIC "-//W3C//DTD SVG 1.1//EN" "http://www.w3.org/Graphics/SVG/1.1/DTD/svg11.dtd"><svg t="1558094705056" class="icon" style="" viewBox="0 0 1024 1024" version="1.1" xmlns="http://www.w3.org/2000/svg" p-id="6412" xmlns:xlink="http://www.w3.org/1999/xlink" width="32" height="32"><defs><style type="text/css"></style></defs><path d="M381.952 391.168h261.12v502.784H381.952z" fill="#FF6660" p-id="6413"></path><path d="M643.072 909.312H381.952c-8.192 0-15.36-7.168-15.36-15.36V391.168c0-8.192 7.168-15.36 15.36-15.36h261.12c8.192 0 15.36 7.168 15.36 15.36v502.784c0 8.192-7.168 15.36-15.36 15.36z m-245.76-30.72h230.4V406.528H397.312v472.064z" fill="#251C4E" p-id="6414"></path><path d="M120.832 549.888h261.12v343.04H120.832z" fill="#FDD838" p-id="6415"></path><path d="M381.952 909.312H120.832c-8.192 0-15.36-7.168-15.36-15.36V549.888c0-8.192 7.168-15.36 15.36-15.36h261.12c8.192 0 15.36 7.168 15.36 15.36v343.04c0 9.216-7.168 16.384-15.36 16.384z m-245.76-30.72h230.4V565.248H136.192v313.344z" fill="#251C4E" p-id="6416"></path><path d="M643.072 642.048h261.12v250.88H643.072z" fill="#FFFFFF" p-id="6417"></path><path d="M904.192 909.312H643.072c-8.192 0-15.36-7.168-15.36-15.36V642.048c0-8.192 7.168-15.36 15.36-15.36h261.12c8.192 0 15.36 7.168 15.36 15.36v250.88c0 9.216-7.168 16.384-15.36 16.384z m-245.76-30.72h230.4V657.408H658.432v221.184z" fill="#251C4E" p-id="6418"></path><path d="M507.904 310.272l70.656 36.864-14.336-77.824 57.344-56.32-78.848-11.264-34.816-71.68-35.84 71.68-78.848 11.264 57.344 56.32-13.312 77.824z" fill="#FF6660" p-id="6419"></path><path d="M437.248 362.496c-3.072 0-6.144-1.024-9.216-3.072-5.12-3.072-7.168-9.216-6.144-15.36l12.288-70.656-51.2-50.176c-4.096-4.096-6.144-10.24-4.096-15.36 2.048-5.12 6.144-9.216 12.288-10.24l70.656-10.24 31.744-64.512c3.072-5.12 8.192-8.192 13.312-8.192s11.264 3.072 13.312 8.192l31.744 64.512 70.656 10.24c6.144 1.024 10.24 5.12 12.288 10.24 2.048 5.12 0 11.264-4.096 15.36l-51.2 50.176 11.264 68.608c1.024 2.048 1.024 1.024 1.024 3.072 0 8.192-7.168 13.312-15.36 13.312-2.048 0-5.12 2.048-7.168 1.024L505.856 327.68l-63.488 33.792s-3.072 1.024-5.12 1.024z m70.656-67.584c2.048 0 5.12 1.024 7.168 2.048l43.008 22.528-8.192-48.128c-1.024-5.12 1.024-10.24 4.096-13.312l34.816-33.792-48.128-7.168c-5.12-1.024-9.216-4.096-11.264-8.192l-21.504-44.032-21.504 44.032c-2.048 4.096-6.144 7.168-11.264 8.192l-48.128 7.168 34.816 33.792c4.096 3.072 5.12 8.192 4.096 13.312l-8.192 48.128 43.008-22.528c2.048-1.024 4.096-2.048 7.168-2.048z" fill="#251C4E" p-id="6420"></path><path d="M516.096 816.128h-17.408v-81.92h17.408v81.92z" fill="#251C4E" p-id="6421"></path><path d="M227.328 801.792h53.248v14.336h-70.656v-21.504c0-9.216 2.048-16.384 7.168-21.504 2.048-2.048 5.12-3.072 7.168-4.096 3.072-1.024 7.168-1.024 12.288-1.024h13.312c4.096 0 8.192-1.024 9.216-2.048 3.072-2.048 4.096-4.096 4.096-7.168 0-4.096-1.024-6.144-4.096-8.192-2.048-1.024-5.12-2.048-10.24-2.048h-38.912v-14.336h41.984c10.24 0 17.408 2.048 21.504 5.12 2.048 2.048 4.096 5.12 6.144 8.192s2.048 7.168 2.048 10.24c0 5.12-1.024 9.216-2.048 12.288-2.048 4.096-4.096 6.144-7.168 8.192-4.096 2.048-10.24 4.096-19.456 4.096h-11.264c-4.096 0-7.168 0-9.216 1.024-2.048 0-3.072 1.024-4.096 3.072-1.024 1.024-2.048 4.096-2.048 8.192v7.168z" fill="#251C4E" p-id="6422"></path><path d="M735.232 816.128v-14.336h34.816c5.12 0 8.192-1.024 10.24-2.048 2.048-2.048 3.072-4.096 3.072-7.168 0-4.096-1.024-7.168-4.096-8.192-2.048-1.024-5.12-1.024-9.216-1.024h-27.648v-14.336h27.648c5.12 0 8.192-1.024 10.24-2.048 2.048-2.048 3.072-4.096 3.072-7.168 0-4.096-1.024-6.144-4.096-8.192-1.024-1.024-2.048-1.024-3.072-1.024h-40.96v-14.336h48.128c1.024 0 3.072 1.024 5.12 1.024 4.096 2.048 7.168 4.096 10.24 8.192 2.048 4.096 4.096 8.192 4.096 12.288 0 7.168-4.096 13.312-11.264 17.408 7.168 5.12 11.264 11.264 11.264 19.456 0 8.192-3.072 13.312-9.216 17.408-3.072 2.048-5.12 3.072-8.192 3.072-3.072 1.024-8.192 1.024-14.336 1.024h-35.84z" fill="#251C4E" p-id="6423"></path></svg>