<?xml version="1.0" standalone="no"?><!DOCTYPE svg PUBLIC "-//W3C//DTD SVG 1.1//EN" "http://www.w3.org/Graphics/SVG/1.1/DTD/svg11.dtd"><svg t="1558094754013" class="icon" style="" viewBox="0 0 1024 1024" version="1.1" xmlns="http://www.w3.org/2000/svg" p-id="7714" xmlns:xlink="http://www.w3.org/1999/xlink" width="32" height="32"><defs><style type="text/css"></style></defs><path d="M540.444444 382.577778h278.044445v199.822222H540.444444z" fill="#FFC10D" p-id="7715"></path><path d="M206.222222 474.311111l33.422222-178.488889c12.088889-63.288889 53.333333-107.377778 100.977778-107.377778h354.133334c46.933333 0 87.466667 42.666667 100.266666 104.533334l36.266667 178.488889" fill="#FFC44F" p-id="7716"></path><path d="M817.777778 844.088889H206.222222c-62.577778 0-113.777778-51.2-113.777778-113.777778V657.066667c0-125.866667 101.688889-227.555556 227.555556-227.555556h384c125.866667 0 227.555556 101.688889 227.555556 227.555556v73.244444c0 62.577778-51.2 113.777778-113.777778 113.777778z" fill="#F6F6F7" p-id="7717"></path><path d="M796.444444 703.288889H227.555556c-15.644444 0-28.444444 12.8-28.444445 28.444444s12.8 28.444444 28.444445 28.444445h568.888888c15.644444 0 28.444444-12.8 28.444445-28.444445s-12.8-28.444444-28.444445-28.444444z" fill="#194F82" p-id="7718"></path><path d="M682.666667 581.688889a42.666667 42.666667 0 1 0 85.333333 0 42.666667 42.666667 0 1 0-85.333333 0Z" fill="#194F82" p-id="7719"></path><path d="M256 581.688889a42.666667 42.666667 0 1 0 85.333333 0 42.666667 42.666667 0 1 0-85.333333 0Z" fill="#194F82" p-id="7720"></path><path d="M952.888889 388.977778h-56.888889c-15.644444 0-28.444444 12.8-28.444444 28.444444s12.8 28.444444 28.444444 28.444445h56.888889c15.644444 0 28.444444-12.8 28.444444-28.444445s-12.8-28.444444-28.444444-28.444444zM128 445.866667c15.644444 0 28.444444-12.8 28.444444-28.444445s-12.8-28.444444-28.444444-28.444444h-56.888889c-15.644444 0-28.444444 12.8-28.444444 28.444444s12.8 28.444444 28.444444 28.444445h56.888889z" fill="#194F82" p-id="7721"></path><path d="M849.066667 446.577778l-32.711111-158.577778c-12.088889-59.022222-37.688889-127.288889-128-127.288889H632.888889V142.222222c0-19.911111-15.644444-35.555556-35.555556-35.555555H426.666667c-19.911111 0-35.555556 16.355556-35.555556 35.555555v17.777778h-57.6c-61.155556 0-114.488889 53.333333-128.711111 130.133333l-29.155556 155.733334C108.088889 492.088889 64 570.311111 64 658.488889v100.266667c0 63.288889 51.2 114.488889 113.777778 114.488888h35.555555v16.355556c0 23.466667 19.2 42.666667 42.666667 42.666667h28.444444c23.466667 0 42.666667-19.2 42.666667-42.666667v-16.355556h369.777778v16.355556c0 23.466667 19.2 42.666667 42.666667 42.666667h28.444444c23.466667 0 42.666667-19.2 42.666667-42.666667v-16.355556h35.555555c62.577778 0 113.777778-51.2 113.777778-114.488888V658.488889c0-88.177778-44.088889-165.688889-110.933333-211.911111zM260.977778 301.511111C270.222222 253.155556 300.8 217.6 334.222222 217.6h56.888889v3.555556c0 19.911111 15.644444 35.555556 35.555556 35.555555h170.666666c19.911111 0 35.555556-16.355556 35.555556-35.555555v-3.555556h54.755555c42.666667 0 59.733333 19.911111 72.533334 81.777778l23.466666 115.2c-24.888889-8.533333-51.911111-12.8-80.355555-12.8H320c-28.444444 0-55.466667 4.977778-80.355556 12.8l21.333334-113.066667z m642.133333 456.533333c0 31.288889-25.6 56.888889-56.888889 56.888889H177.777778c-31.288889 0-56.888889-25.6-56.888889-56.888889v-99.555555C120.888889 547.555556 210.488889 457.955556 320 457.955556h384c109.511111 0 199.111111 89.6 199.111111 199.822222v100.266666z" fill="#194F82" p-id="7722"></path><path d="M568.888889 210.488889H455.111111c-4.266667 0-7.111111-2.844444-7.111111-7.111111v-42.666667c0-4.266667 2.844444-7.111111 7.111111-7.111111h113.777778c4.266667 0 7.111111 2.844444 7.111111 7.111111v42.666667c0 3.555556-2.844444 7.111111-7.111111 7.111111z" fill="#5CBAEA" p-id="7723"></path></svg>