<?xml version="1.0" standalone="no"?><!DOCTYPE svg PUBLIC "-//W3C//DTD SVG 1.1//EN" "http://www.w3.org/Graphics/SVG/1.1/DTD/svg11.dtd"><svg t="1558094884244" class="icon" style="" viewBox="0 0 1024 1024" version="1.1" xmlns="http://www.w3.org/2000/svg" p-id="8243" xmlns:xlink="http://www.w3.org/1999/xlink" width="32" height="32"><defs><style type="text/css"></style></defs><path d="M928.667 79.667H97.333C65.671 79.667 40 105.338 40 137v774c0 31.662 25.671 57.334 57.333 57.334h831.333C960.328 968.334 986 942.662 986 911V137c0-31.662-25.672-57.333-57.333-57.333z" fill="#0084FF" p-id="8244"></path><path d="M758.347 172.273c-160.431-46.975-330.262-46.975-490.7 0-19.099 5.572-30.521 22.998-25.727 37.961 14.172 45.296 28.338 90.605 42.503 135.901 4.808 14.991 20.604 23.026 35.448 18.701 126.285-36.967 259.974-36.967 386.258 0 14.844 4.325 30.641-3.709 35.441-18.701 14.172-45.296 28.338-90.605 42.51-135.901 4.795-14.963-6.634-32.389-25.733-37.961z" fill="#FFFFFF" p-id="8245"></path><path d="M513 165.667c-7.916 0-14.333 6.411-14.333 14.333v14.333c0 7.923 6.417 14.333 14.333 14.333s14.333-6.41 14.333-14.333V180c0-7.922-6.417-14.333-14.333-14.333z m86.203 7.545c-7.797-1.372-15.236 3.82-16.608 11.617l-2.491 14.124c-1.371 7.796 3.835 15.229 11.632 16.601 7.797 1.371 15.229-3.835 16.601-11.632l2.492-14.11c1.37-7.796-3.838-15.229-11.626-16.6z m83.577 22.395c-7.439-2.716-15.662 1.12-18.37 8.566l-4.898 13.466c-2.71 7.432 1.126 15.663 8.565 18.364 7.44 2.716 15.663-1.12 18.371-8.566l4.899-13.466c2.71-7.432-1.126-15.662-8.567-18.364z m-239.823-10.736c-1.372-7.796-8.804-13.003-16.608-11.618-7.79 1.372-12.996 8.804-11.625 16.601l2.492 14.109c1.372 7.796 8.804 13.004 16.601 11.632 7.797-1.372 13.003-8.804 11.632-16.601l-2.492-14.123z m-82.249 19.457c-2.709-7.447-10.932-11.282-18.372-8.566-7.44 2.702-11.274 10.932-8.566 18.364l4.906 13.466c2.709 7.447 10.932 11.282 18.372 8.566 7.44-2.701 11.275-10.918 8.566-18.364l-4.906-13.466z" fill="#0084FF" p-id="8246"></path><path d="M313.964 629.414c40.033-55.527 4.199-81.354-23.382-88.646-27.582-7.291-99.046-1.512-103.273 91.039-6.627 145.14 49.852 209.556 94.098 207.512 55.233-2.561 62.205-36.505 47.444-79.771-26.022-76.328-54.912-74.606-14.887-130.134z m24.124-155.931c-13.843-3.905-29.388 8.818-34.713 28.401-5.333 19.568 1.561 38.604 15.404 42.51 13.837 3.905 29.381-8.818 34.714-28.401 5.332-19.568-1.568-38.604-15.405-42.51z m-63.533 55.472c10.008 0.756 19.141-12.57 20.394-29.772 1.253-17.204-5.843-31.761-15.859-32.517-10.008-0.755-19.134 12.584-20.387 29.787-1.254 17.203 5.843 31.761 15.852 32.502z m-36.632 4.704c8.86-1.092 14.501-14.839 12.604-30.697-1.903-15.846-10.631-27.813-19.492-26.708-8.867 1.092-14.508 14.838-12.604 30.696 1.904 15.846 10.632 27.815 19.492 26.709z m-31.648 16.362c7.391-2.549 9.763-15.51 5.297-28.961-4.465-13.438-14.081-22.284-21.471-19.736-7.398 2.534-9.771 15.495-5.298 28.947 4.466 13.451 14.082 22.284 21.472 19.75z m-23.677-3.625c-8.14-10.652-19.253-15.705-24.824-11.296-5.572 4.41-3.493 16.615 4.64 27.253 8.14 10.651 19.253 15.705 24.824 11.296 5.572-4.409 3.493-16.616-4.64-27.253zM735.418 540.769c-27.58 7.292-63.415 33.118-23.383 88.646 40.026 55.528 11.136 53.806-14.886 130.135-14.76 43.266-7.788 77.21 47.444 79.771 44.247 2.044 100.718-62.372 94.097-207.512-4.225-92.552-75.689-98.331-103.272-91.04z m-28.196 3.626c13.835-3.906 20.736-22.942 15.403-42.51-5.334-19.583-20.87-32.306-34.714-28.401-13.836 3.905-20.737 22.942-15.404 42.51 5.333 19.582 20.871 32.306 34.715 28.401z m44.223-15.44c10.01-0.741 17.105-15.299 15.853-32.502-1.253-17.203-10.38-30.542-20.395-29.787-10.008 0.756-17.104 15.313-15.853 32.517 1.254 17.202 10.388 30.528 20.395 29.772z m36.631 4.704c8.86 1.105 17.587-10.863 19.492-26.708 1.896-15.858-3.745-29.604-12.605-30.696-8.859-1.105-17.588 10.862-19.492 26.708-1.903 15.857 3.738 29.604 12.605 30.696z m31.649 16.362c7.391 2.533 17.007-6.3 21.473-19.75 4.465-13.452 2.093-26.414-5.298-28.947-7.391-2.547-17.009 6.298-21.473 19.736-4.473 13.452-2.099 26.413 5.298 28.961z m48.501-14.921c-5.57-4.409-16.686 0.644-24.824 11.296-8.132 10.638-10.21 22.845-4.64 27.253 5.571 4.409 16.685-0.645 24.823-11.296 8.134-10.638 10.211-22.843 4.641-27.253z" fill="#4DEDE4" p-id="8247"></path><path d="M450.5 258l-15.438 83.625s40.25-3.5 48.063-3.875C476 320.5 450.5 258 450.5 258z" fill="#0084FF" p-id="8248"></path></svg>