<?xml version="1.0" standalone="no"?><!DOCTYPE svg PUBLIC "-//W3C//DTD SVG 1.1//EN" "http://www.w3.org/Graphics/SVG/1.1/DTD/svg11.dtd"><svg t="1558094903707" class="icon" style="" viewBox="0 0 1024 1024" version="1.1" xmlns="http://www.w3.org/2000/svg" p-id="8431" xmlns:xlink="http://www.w3.org/1999/xlink" width="32" height="32"><defs><style type="text/css"></style></defs><path d="M733.090909 744.727273h-442.181818a34.909091 34.909091 0 1 0 0 69.818182h442.181818a34.909091 34.909091 0 1 0 0-69.818182m-297.681454-229.818182a52.037818 52.037818 0 0 0 50.129454-38.050909L512 381.928727l26.461091 94.929455a52.037818 52.037818 0 0 0 100.119273 0.372363l70.283636-244.736a34.955636 34.955636 0 0 0-29.672727-44.357818c-17.268364-2.048-33.117091 10.146909-37.911273 26.856728l-52.433455 182.574545-43.659636-153.227636a35.025455 35.025455 0 0 0-67.374545 0.186181l-42.658909 153.041455-52.433455-182.574545c-4.794182-16.709818-20.642909-28.904727-37.911273-26.856728a34.955636 34.955636 0 0 0-29.672727 44.357818l70.283636 244.736a52.014545 52.014545 0 0 0 49.989819 37.678546M733.090909 605.090909h-442.181818a34.909091 34.909091 0 1 0 0 69.818182h442.181818a34.909091 34.909091 0 1 0 0-69.818182m139.636364 116.363636a34.909091 34.909091 0 0 0 34.909091-34.90909V93.090909a69.818182 69.818182 0 0 0-69.818182-69.818182H186.181818a69.818182 69.818182 0 0 0-69.818182 69.818182v837.818182a69.818182 69.818182 0 0 0 69.818182 69.818182h651.636364a69.818182 69.818182 0 0 0 69.818182-69.818182v-81.454546a34.909091 34.909091 0 1 0-69.818182 0V930.909091H186.181818V93.090909h651.636364v593.454546a34.909091 34.909091 0 0 0 34.909091 34.90909" p-id="8432" fill="#1296db"></path></svg>