<?xml version="1.0" standalone="no"?><!DOCTYPE svg PUBLIC "-//W3C//DTD SVG 1.1//EN" "http://www.w3.org/Graphics/SVG/1.1/DTD/svg11.dtd"><svg t="1558094924653" class="icon" style="" viewBox="0 0 1024 1024" version="1.1" xmlns="http://www.w3.org/2000/svg" p-id="8837" xmlns:xlink="http://www.w3.org/1999/xlink" width="32" height="32"><defs><style type="text/css"></style></defs><path d="M232.448 275.456c-10.752-21.504-31.744-34.304-57.344-34.304-36.352 0-68.096 29.696-68.096 68.096s29.696 68.096 68.096 68.096c25.6 0 47.104-12.8 57.344-34.304h119.296V275.456H232.448z m8.704 404.992c-36.352 0-68.096-29.696-68.096-68.096 0-38.4 29.696-68.096 68.096-68.096h108.544V475.648H241.152c-74.752 0-134.144 59.904-134.144 134.144s59.904 134.656 134.144 134.656h108.544v-68.096H241.152v4.096z m607.744-33.792c-25.6 0-47.104 12.8-57.344 34.304h-119.296v68.096h119.296c12.8 21.504 34.304 34.304 57.344 34.304 36.352 0 68.096-29.696 68.096-68.096 0.512-38.912-29.696-68.608-68.096-68.608z" fill="#63BA4D" p-id="8838"></path><path d="M352.256 832l320 85.504v-168.448H352.256v82.944zM512 409.6c0-36.352-29.696-68.096-68.096-68.096H349.696v134.144h93.696c38.912 2.048 68.608-27.648 68.608-66.048z" fill="#63BA4D" p-id="8839"></path><path d="M580.096 409.6c0 74.752-61.952 134.144-134.144 134.144H352.256v134.144h320V106.496L352.256 192v85.504h93.696c72.704-2.048 134.144 59.392 134.144 132.096z" fill="#63BA4D" p-id="8840"></path></svg>