<?xml version="1.0" standalone="no"?><!DOCTYPE svg PUBLIC "-//W3C//DTD SVG 1.1//EN" "http://www.w3.org/Graphics/SVG/1.1/DTD/svg11.dtd"><svg t="1558094946116" class="icon" style="" viewBox="0 0 1024 1024" version="1.1" xmlns="http://www.w3.org/2000/svg" p-id="9788" xmlns:xlink="http://www.w3.org/1999/xlink" width="32" height="32"><defs><style type="text/css"></style></defs><path d="M506.1 952.6H842S825.3 756 596 725.3c-62.5-3.8-89.8-2.4-89.8-2.4v0.2c-0.1 163.3-0.1 229.5-0.1 229.5z" fill="#FFDDB8" p-id="9789"></path><path d="M507.5 952.6H173s16.7-197 245-227.6c62.2-3.8 89.5-2.4 89.5-2.4v230z" fill="#F5D4B1" p-id="9790"></path><path d="M438.5 619.3h145.1v133H438.5v-133z" fill="#FFDDB8" p-id="9791"></path><path d="M438.5 614.8h145.1v45.1l-145.1 88V614.8z" fill="#E5C6A5" p-id="9792"></path><path d="M507.4 199.9v443.9c60.1-3 132.8-43.5 167.1-108.4 17.6-33.3 19-71.6 19-113.2-0.1-122.8-79.7-222.3-186.1-222.3z" fill="#FFDDB8" p-id="9793"></path><path d="M507.3 199.9v443.9c-60.1-3-132.8-43.5-167.1-108.4-17.6-33.3-19-71.6-19-113.2 0.1-122.8 79.7-222.3 186.1-222.3z" fill="#F5D4B1" p-id="9794"></path><path d="M335.8 399.4c3.4-50.5 26.8-108.5 105.6-140.7 19 4.3 58.6 37.5 129 4.5 47.9-22.4 108.1 77.3 116.7 118.3 6.9 32.8-6.5 29.4 15.6 22.3 5-3.9 38-54.2-13.4-256.8-103.8-88.3-187.5-80.4-187.5-80.4S370 80.9 309.7 182.8c-16.6 90-20.3 158.6-8.4 208.3 11.2-27.7 24.9-16.1 34.5 8.3z" fill="#5C3E31" p-id="9795"></path><path d="M712.9 369.6c12 4 15.4 25.9 7.7 48.7-7.7 22.9-23.7 38.2-35.6 34.1-12-4-15.4-25.9-7.7-48.7 7.6-22.8 23.6-38.1 35.6-34.1z" fill="#FFDDB8" p-id="9796"></path><path d="M303.9 368.6c-12 4.1-15.4 26.2-7.7 49.4s23.7 38.7 35.6 34.6c12-4.1 15.4-26.2 7.7-49.4-7.6-23.2-23.6-38.7-35.6-34.6z" fill="#F5D4B1" p-id="9797"></path><path d="M347.2 741.5c1.2 30.2 7.9 90.6 39.9 130.6 29.5 40.2 120.4 45.9 120.4 45.9v34.4H274V775c24.6-14.2 38.5-20.4 73.2-33.5z" fill="#DF4141" p-id="9798"></path><path d="M292.8 764.8v187.8c63.9 0 7.6-0.2 169.6-0.2-30.3-7.6-70.1-23.1-96.5-54.9-23.8-28.9-36.2-94.5-40.8-148.4-5.6 2.3-21 6.3-32.3 15.7z" fill="#E0ECFF" p-id="9799"></path><path d="M740.5 774.9v177.4H507V918s90.9-5.7 120.2-45.9c32.1-39.9 38.8-100.5 39.9-130.6 34.9 13.1 48.8 19.3 73.4 33.4z" fill="#F56868" p-id="9800"></path><path d="M690.3 748.9c-4.5 53.9-16.8 119.5-40.8 148.4-26.3 31.9-66.2 47.5-96.5 54.9 162.1 0 105.7 0.2 169.6 0.2V764.6c-11.3-9.2-26.6-13.2-32.3-15.7z" fill="#FFFFFF" p-id="9801"></path></svg>