<?xml version="1.0" standalone="no"?><!DOCTYPE svg PUBLIC "-//W3C//DTD SVG 1.1//EN" "http://www.w3.org/Graphics/SVG/1.1/DTD/svg11.dtd"><svg t="1558094961429" class="icon" style="" viewBox="0 0 1024 1024" version="1.1" xmlns="http://www.w3.org/2000/svg" p-id="10147" xmlns:xlink="http://www.w3.org/1999/xlink" width="32" height="32"><defs><style type="text/css"></style></defs><path d="M537 920.8l-470-230v-212l470 212z" fill="#37BBEF" p-id="10148"></path><path d="M537 920.8l420-230v-210l-420 210z" fill="#2481BA" p-id="10149"></path><path d="M67 478.8l470 212 420-210-494.4-166.6z" fill="#3ED6FF" p-id="10150"></path><path d="M537 671.8l-470-213v-204l470 187z" fill="#37BBEF" p-id="10151"></path><path d="M537 671.8l420-210v-207l-420 187z" fill="#2481BA" p-id="10152"></path><path d="M67 254.8l470 187 420-187-494.4-151.6z" fill="#3ED6FF" p-id="10153"></path><path d="M486 818.5l-383-182v-77l383 177zM486 581.5l-383-165v-77l383 160z" fill="#113B42" p-id="10154"></path><path d="M124.5 374.1l63.8 26.9v28l-63.8-26.9v-28z m86.4 64.3l63.8 26.9v-27.8l-63.8-26.9v27.8z m86.3 36.4l63.8 26.9v-27.8L297.2 447v27.8z m86.3 8.6v27.7l63.8 26.9v-27.7l-63.8-26.9zM124.5 593.1l63.8 29.7v28.8l-63.8-30.5v-28z m86.4 69.3l63.8 30.5v-30l-63.8-29.7v29.2z m86.3 41.3l63.8 30.5V703l-63.8-29.7v30.4z m86.3 9.8v31.4l63.8 30.5v-32.3l-63.8-29.6z" fill="#FFFFFF" p-id="10155"></path></svg>