<?xml version="1.0" standalone="no"?><!DOCTYPE svg PUBLIC "-//W3C//DTD SVG 1.1//EN" "http://www.w3.org/Graphics/SVG/1.1/DTD/svg11.dtd"><svg t="1555901655500" class="icon" style="" viewBox="0 0 1024 1024" version="1.1" xmlns="http://www.w3.org/2000/svg" p-id="1114" xmlns:xlink="http://www.w3.org/1999/xlink" width="200" height="200"><defs><style type="text/css"></style></defs><path d="M512.651986 860.844426c-68.856105 0-137.712209 0.159021-206.536509-0.031804-81.991241-0.222629-136.408237-52.476939-136.758083-134.245551-0.572476-134.022921-0.031804-268.045843 1.176755-402.036959 0.699693-77.697674 60.04634-135.422306 138.062056-136.249216 42.903873-0.445259 85.83955-0.636084 128.743423 0.254433 12.40364 0.254434 15.488648-3.593875 14.375501-15.043389-0.954126-9.954716-0.667888-20.163866 0.063608-30.150386 1.144951-16.061124 11.79936-25.984036 26.524707-25.729603 15.011585 0.254434 24.330217 10.081933 24.839085 26.84275 0.349846 11.640339 0.254434 23.312483 0.031804 34.952821-0.095413 5.661149 1.20856 8.841569 7.823835 8.936982 7.219555 0.095413 7.219555-4.070938 7.155946-9.191415-0.127217-11.131472-0.222629-22.262944 0-33.362612 0.38165-17.873963 9.573066-27.987701 25.316147-28.178526 15.838494-0.190825 25.347952 9.859304 25.952232 27.478834 0.031804 0.540671-0.031804 1.049539 0 1.59021 1.017735 13.548591-6.010995 32.122247 3.116812 39.309998 8.61894 6.774296 26.365686 1.971861 40.105103 2.226294 39.691648 0.763301 79.605926-2.957791 119.106749 1.590211 71.972917 8.300898 121.046806 64.180886 121.428456 137.26695 0.477063 99.610771-0.254434 199.189738 0.318042 298.800509 0.222629 39.119173 3.053204 78.270149-0.636084 117.29391-6.710687 71.050595-58.360717 117.802777-130.365438 118.566077-34.952822 0.38165-69.937448-0.159021-104.890269-0.222629-34.952822-0.063608-69.937448 0-104.890269 0-0.063608-0.222629-0.063608-0.445259-0.063609-0.667889z" fill="#123450" p-id="1115"></path><path d="M187.485791 463.896139c0-45.066559 0.763301-90.133118-0.190826-135.167872-1.335777-65.612076 56.102618-124.577072 122.986862-122.318974 41.281859 1.399385 82.690934 0.922322 124.004597-0.095413 14.534522-0.349846 18.669069 4.452589 17.365096 18.096593-1.049539 11.036059-0.699693 22.262944-0.095412 33.362611 0.858714 15.42504 7.569401 26.938162 23.185265 32.408486 13.803025 4.834239 17.269684 27.733267 6.265429 38.546697-21.181601 20.736342-21.277013 21.881293-5.883778 46.783986 4.707022 7.633009 8.491723 15.870298 13.548591 23.280678 12.212815 17.810355 34.253129 17.206075 45.289189-1.240364 6.519862-10.877038 12.276423-22.199335 18.414635-33.299003 7.060534-12.753486 3.371246-23.407895-6.837904-32.376681-13.325962-11.672143-11.513122-33.489828 3.40305-42.140572 13.198745-7.664813 21.436034-18.22381 20.291083-34.793801-0.826909-12.117402 0.063608-24.362021-0.22263-36.574836-0.190825-7.601205 1.749231-11.831164 10.527192-11.767556 50.346057 0.254434 100.819331-1.81284 151.038171 0.731497 48.437805 2.448924 93.536168 46.783986 102.536758 94.681119 2.448924 13.103333 3.180421 26.111253 3.180421 39.341802-0.095413 87.461565-0.38165 174.923129 0.254434 262.384694 0.095413 14.59813-2.862378 19.305153-18.732677 20.291083-26.111253 1.653819-52.445135 5.915582-77.729478 12.62627-32.790136 8.714352-63.322173 3.625679-94.490294-6.329037-32.154052-10.272758-64.753362-19.082523-97.25726-28.273939-32.980961-9.318632-64.689754-2.353511-96.239526 7.823835-26.62012 8.587135-53.558282 16.220145-80.24201 24.584651-28.242134 8.841569-56.388856 3.911917-84.662795 0.445259-29.196261-3.562071-57.915458-11.608535-87.493369-11.385906-11.926577 0.095413-12.371836-6.010995-12.340031-14.947976 0.254434-48.215175 0.127217-96.462155 0.127217-144.677331z" fill="#273A50" p-id="1116"></path><path d="M190.888841 642.794795c10.177346-7.887443 20.609125-0.731497 30.436624 0.413454 32.503898 3.7847 64.785166 9.255024 97.130043 14.311893 29.387086 4.61161 56.325248-5.470323 83.613256-13.548592 25.761406-7.633009 51.395596-15.647669 77.157002-23.185266 23.980371-6.996925 47.833525-6.074603 71.750288 1.081343 30.818275 9.191415 62.336243 16.283753 92.550237 27.033575 40.264124 14.311892 79.923968 10.463584 120.219897 2.003665 18.064789-3.7847 36.384011-6.456254 54.639624-9.159611 5.184085-0.763301 11.449514-3.816505 15.361432 3.085008 0.763301 25.316147 4.897848 50.854924 1.97186 75.884834-4.420785 37.560767-26.588316 64.912383-58.201696 84.503773-21.531447 13.357766-44.939342 20.19567-70.764356 20.132062-130.174613-0.349846-260.381029-0.063608-390.555642-0.222629-55.530143-0.063608-104.158773-33.553437-124.418052-85.108054-1.749231-4.452589-3.625679-9.032394-3.7847-13.707612-0.826909-27.860484 0.413455-55.720968 2.894183-83.517843z" fill="#FBDBCB" p-id="1117"></path><path d="M190.888841 642.794795c-0.190825 20.100258 0.413455 40.264124-0.667889 60.332577-3.085008 55.752772 54.194366 116.244371 115.767308 116.880455 137.107929 1.399385 274.215859 1.272168 411.323788 0.063608 61.064074-0.540671 118.979532-60.300773 116.148958-116.498804-0.98593-19.527782 0.127217-39.150977 0.286238-58.742367 6.138212 13.707613 0.60428 28.305743 3.18042 42.299593 1.049539 19.018915 2.41712 38.03783-0.763301 57.02494-5.120477 31.995031-19.686803 58.583346-45.00295 79.065255-18.859894 18.796285-42.299593 24.521042-68.092804 24.489238-132.210082-0.127217-264.420163-0.063608-396.630245-0.063609-11.640339 0-23.312483 0.667888-34.889213-0.318042-25.443364-2.162686-48.310588-10.368171-65.771097-30.150386-21.149797-19.941237-33.20359-44.653104-38.260459-73.05426-2.989595-18.955306-1.685623-37.974221-0.731497-56.993136 2.862378-14.629934-3.7847-30.150387 4.102743-44.335062z" fill="#BDA598" p-id="1118"></path><path d="M225.778054 817.177253c25.125322 18.859894 53.303848 25.761406 84.726403 25.634189 134.563593-0.636084 269.127186-0.572476 403.690779 0.254434 27.924092 0.159021 53.462869-4.770631 76.966177-19.81402-2.099078 5.915582-7.060534 11.608535-15.106998 16.124732-21.467839 12.02199-44.207845 19.400565-69.205951 19.336957-130.715284-0.222629-261.462372-0.286238-392.177656-0.159021-32.758332 0.031804-60.491599-12.40364-85.108054-32.917353-2.19449-1.81284-7.728422-3.40305-3.7847-8.459918z" fill="#0E283D" p-id="1119"></path><path d="M551.802963 202.370159v52.476939c0 11.79936-4.00733 19.527782-17.61953 18.700872-11.322297-0.699693-16.442774 4.802435-15.997515 16.315558 0.445259 12.181011 0.38165 24.393826 0 36.574836-0.318042 9.827499 0.572476 17.937572 12.976116 19.432369 7.633009 0.922322 7.505792 6.742492 4.738826 11.958382-5.406715 10.272758-11.19508 20.354691-17.333292 30.213995-4.897848 7.855639-10.622605 8.300898-15.711277-0.063609-4.102742-6.774296-7.951051-13.707613-11.926577-20.545516-5.979191-10.240954-14.788955-20.831755 6.456254-24.393826 4.929652-0.826909 5.406715-6.869708 5.343106-11.894773-0.190825-13.771221-0.572476-27.574246 0.095413-41.313663 0.572476-11.703948-4.452589-16.888033-15.774886-16.251948-12.530857 0.699693-16.729012-5.629344-16.601795-17.460509 0.318042-36.034165 0.063608-72.068329 0.190825-108.102494 0-4.929652-1.781036-11.544927 6.519862-11.862969 8.459919-0.318042 8.746156 5.915582 8.746157 12.02199 0 31.263534 0.572476 62.558872-0.254434 93.790601-0.349846 12.880703 4.484393 16.697208 16.569991 16.442775 37.179116-0.731497 33.744262 4.102742 33.80787-32.662919 0.063608-25.443364-0.063608-50.886729 0.063609-76.330093 0.031804-5.629344-1.113147-13.166941 7.251358-13.389571 9.318632-0.254434 8.428114 7.696618 8.459919 13.930242 0.095413 17.428705 0 34.921017 0 52.413331z" fill="#FEFEFE" p-id="1120"></path><path d="M518.249526 225.650837c-1.176756 4.643414 2.79877 11.41771-3.880113 14.979781-3.212225 1.717427-7.219555 1.685623-10.20915-1.303973-2.766966-2.735162-2.671553-27.987701 0.127217-30.563841 3.053204-2.79877 6.837904-2.607945 10.304563-1.144951 3.689288 1.59021 3.721092 2.735162 3.657483 18.032984z" fill="#253A50" p-id="1121"></path><path d="M836.164363 744.154797l0.763301-57.02494c3.816505 19.082523 4.929652 38.101438-0.763301 57.02494z" fill="#0E283F" p-id="1122"></path><path d="M186.786098 687.161661c0.254434 18.987111 0.477063 38.006025 0.731497 56.993136-5.565736-18.955306-4.420785-37.974221-0.731497-56.993136z" fill="#0E2940" p-id="1123"></path><path d="M651.413734 572.443892c-22.580986 0.731497-40.073299-7.696618-53.653694-24.171196-10.622605-12.880703-7.346771-23.884958 7.887443-30.977296 28.178526-13.135137 55.720968-27.351617 87.079914-32.567506 15.138802-2.512532 29.736932-1.526602 43.698978 2.576141 11.79936 3.466658 13.00792 13.803025 7.728422 24.552846-19.20974 38.832935-49.105693 61.095878-92.741063 60.587011zM370.709818 572.380284c-41.504488-0.063608-78.111128-25.061714-92.168587-62.940523-4.452589-12.02199 0.445259-19.941237 12.944311-23.058048 34.571171-8.650744 65.548467 3.530267 96.366742 16.18834 10.749821 4.420785 21.086188 9.922912 31.23173 15.615865 15.170606 8.491723 16.729012 18.669069 5.21589 31.995031-14.121067 16.315557-32.122247 23.503308-53.590086 22.199335zM512.365748 773.351058c-8.491723 0-16.983446-0.349846-25.41156 0.095412-7.092338 0.38165-10.495388-1.240364-10.336366-9.445849 0.159021-7.982856 4.357176-8.110072 10.113737-8.078268 16.951641 0.127217 33.903283 0.254434 50.854924-0.031804 6.424449-0.095413 9.509457 1.335777 9.509458 8.682548 0 7.155946-2.607945 9.191415-9.286828 8.873373-8.459919-0.445259-16.951641-0.095413-25.443365-0.095412z" fill="#123450" p-id="1124"></path><path d="M726.726092 503.619592c-16.506383 37.465354-47.833525 55.275709-85.998571 49.83719-4.643414-0.667888-9.286828-2.003665-13.644004-3.816505-6.456254-2.671553-14.025655-6.774296-14.439109-13.453179-0.38165-5.883778 8.61894-5.883778 13.453179-8.364506 31.136317-16.092928 62.84511-30.086778 100.628505-24.203zM295.938131 503.6832c44.84393-7.060534 79.86036 13.675808 116.562413 31.136317-13.166941 20.19567-32.408485 20.895363-52.286114 18.796286-30.881883-3.275833-50.314253-21.658664-64.276299-49.932603z" fill="#FFFFFF" p-id="1125"></path></svg>